<?xml version="1.0" encoding="utf-8"?>
<svg viewBox="0 0 32 22.9" width="32" height="22.9" xmlns="http://www.w3.org/2000/svg">
  <g transform="matrix(1, 0, 0, 1, -7.185997, -11.932716)">
    <path class="st0" d="M 33.533 18.931 C 32.999 18.306 32.236 17.752 31.294 17.287 L 31.296 17.287 C 29.419 16.358 26.845 15.789 24.001 15.787 L 23.993 15.788 L 23.993 15.787 C 22.125 15.788 20.372 16.033 18.856 16.464 C 17.341 16.896 16.066 17.511 15.147 18.259 L 15.149 18.258 C 14.535 18.757 14.084 19.313 13.833 19.919 C 13.69 20.262 13.615 20.624 13.615 20.991 C 13.615 21.293 13.86 21.538 14.162 21.538 C 14.465 21.538 14.709 21.293 14.709 20.991 C 14.71 20.771 14.751 20.561 14.844 20.336 C 15.003 19.947 15.33 19.519 15.838 19.108 L 15.839 19.107 C 16.596 18.487 17.75 17.915 19.156 17.517 C 20.562 17.116 22.221 16.881 23.993 16.882 L 24.021 16.882 C 26.709 16.882 29.136 17.434 30.809 18.267 L 30.811 18.268 C 31.65 18.681 32.298 19.167 32.701 19.641 C 32.904 19.879 33.048 20.113 33.141 20.336 C 33.256 20.616 33.576 20.748 33.855 20.633 C 34.134 20.517 34.267 20.198 34.152 19.919 C 34.009 19.574 33.801 19.243 33.533 18.931 Z" style="fill: rgb(243, 199, 13);"/>
    <path class="st0" d="M 38.776 18.597 C 38.545 18.04 38.229 17.523 37.849 17.044 C 37.468 16.567 37.022 16.128 36.527 15.724 L 36.496 15.7 L 36.526 15.724 C 35.036 14.514 33.077 13.589 30.807 12.939 L 30.806 12.939 C 28.534 12.294 25.942 11.933 23.186 11.933 C 21.086 11.933 19.082 12.142 17.241 12.527 C 15.401 12.913 13.724 13.473 12.277 14.188 L 12.276 14.189 C 10.831 14.905 9.603 15.778 8.691 16.843 L 8.708 16.822 L 8.691 16.843 C 8.236 17.376 7.86 17.96 7.596 18.597 C 7.332 19.233 7.186 19.92 7.186 20.626 L 7.186 26.178 C 7.186 26.885 7.332 27.572 7.596 28.209 C 7.827 28.765 8.143 29.282 8.523 29.76 C 8.905 30.238 9.35 30.677 9.845 31.08 L 9.846 31.081 C 11.336 32.29 13.295 33.217 15.565 33.866 L 15.577 33.869 C 17.847 34.512 20.434 34.872 23.186 34.873 L 23.187 34.873 C 25.286 34.872 27.29 34.663 29.131 34.278 C 30.971 33.893 32.648 33.331 34.095 32.617 L 34.096 32.616 C 35.541 31.899 36.769 31.026 37.681 29.963 L 37.681 29.962 C 38.136 29.43 38.512 28.845 38.775 28.209 L 38.759 28.248 L 38.776 28.209 C 39.039 27.572 39.186 26.885 39.186 26.178 L 39.186 20.626 C 39.186 19.92 39.039 19.233 38.776 18.597 Z M 10.766 29.069 C 10.598 28.91 10.441 28.749 10.301 28.586 C 9.969 28.197 9.72 27.799 9.554 27.399 C 9.388 26.997 9.305 26.593 9.305 26.178 L 9.305 23.661 C 9.629 24.061 10.012 24.439 10.445 24.792 C 10.549 24.876 10.656 24.959 10.766 25.041 L 10.766 29.069 Z M 13.834 31.003 C 13.623 30.911 13.415 30.817 13.216 30.718 C 12.752 30.488 12.325 30.243 11.935 29.987 L 11.935 25.805 C 12.517 26.139 13.152 26.445 13.834 26.721 L 13.834 31.003 Z M 17.633 32.195 C 16.671 31.991 15.768 31.736 14.935 31.439 L 15.004 31.439 L 15.004 27.147 C 15.271 27.236 15.546 27.32 15.826 27.4 C 16.405 27.565 17.009 27.709 17.633 27.834 L 17.633 32.195 Z M 22.601 32.747 C 21.278 32.721 20.005 32.6 18.803 32.406 L 18.803 28.039 C 20.012 28.226 21.285 28.335 22.601 28.361 L 22.601 32.747 Z M 27.716 32.379 C 26.47 32.587 25.149 32.718 23.771 32.744 L 23.771 28.363 C 25.14 28.337 26.463 28.218 27.716 28.019 L 27.716 32.379 Z M 31.515 31.412 C 31.103 31.562 30.673 31.701 30.226 31.828 C 29.795 31.951 29.345 32.06 28.885 32.16 L 28.885 27.805 C 29.81 27.614 30.69 27.376 31.515 27.098 L 31.515 31.412 Z M 34.583 29.888 C 34.03 30.267 33.393 30.62 32.684 30.94 L 32.684 26.66 C 33.025 26.518 33.357 26.37 33.674 26.213 C 33.991 26.056 34.293 25.89 34.583 25.72 L 34.583 29.888 Z M 37.067 26.178 C 37.067 26.593 36.984 26.997 36.817 27.399 C 36.604 27.918 36.245 28.434 35.752 28.93 L 35.752 24.98 L 35.683 24.98 C 36.168 24.61 36.598 24.215 36.959 23.793 C 36.996 23.75 37.031 23.706 37.067 23.662 L 37.067 26.178 Z M 36.817 21.846 C 36.529 22.547 35.979 23.242 35.188 23.886 C 34.005 24.852 32.289 25.689 30.226 26.275 C 28.164 26.863 25.756 27.202 23.186 27.202 C 19.27 27.203 15.729 26.411 13.216 25.165 C 11.96 24.544 10.964 23.811 10.301 23.033 C 9.969 22.645 9.72 22.247 9.554 21.846 C 9.388 21.445 9.305 21.041 9.305 20.626 C 9.305 20.212 9.388 19.808 9.554 19.406 C 9.844 18.705 10.393 18.01 11.184 17.367 C 12.368 16.401 14.083 15.563 16.146 14.977 C 18.208 14.39 20.616 14.051 23.186 14.051 C 27.102 14.049 30.643 14.842 33.155 16.087 C 34.412 16.708 35.408 17.442 36.071 18.219 C 36.403 18.607 36.652 19.005 36.817 19.406 C 36.984 19.808 37.067 20.212 37.067 20.626 C 37.067 21.041 36.984 21.445 36.817 21.846 Z" style="fill: rgb(243, 199, 13);"/>
  </g>
</svg>