<?xml version="1.0" encoding="UTF-8"?>
<svg xmlns="http://www.w3.org/2000/svg" xmlns:xlink="http://www.w3.org/1999/xlink" width="24px" height="24px" viewBox="0 0 24 24" version="1.1">
<g id="surface1">
<path style="stroke:none;fill-rule:nonzero;fill:#FFFFFF;fill-opacity:0;" d="M 0 0 L 0 11.671875 L 0.046875 11.671875 C 0.230469 11.253906 0.589844 10.894531 0.878906 10.546875 C 1.59375 9.695312 2.382812 8.902344 3.234375 8.191406 C 7.210938 4.871094 12.511719 3.863281 17.296875 5.992188 C 18.644531 6.59375 19.886719 7.429688 21 8.390625 C 22.023438 9.273438 23.363281 10.433594 23.953125 11.671875 L 24 11.671875 L 24 0 Z M 0 0 "/>
<path style="stroke:none;fill-rule:nonzero;fill:#151515;fill-opacity:1;" d="M 11.203125 4.847656 C 10.28125 4.96875 9.382812 5.058594 8.484375 5.316406 C 6.058594 6.007812 4.046875 7.410156 2.203125 9.085938 C 1.59375 9.640625 1.050781 10.277344 0.535156 10.921875 C 0.308594 11.203125 0.0234375 11.480469 0.00390625 11.859375 C -0.03125 12.421875 0.273438 12.753906 0.609375 13.171875 C 1.144531 13.839844 1.734375 14.445312 2.34375 15.046875 C 5.324219 17.992188 9.507812 19.597656 13.6875 19.066406 C 16.914062 18.652344 20.050781 16.878906 22.226562 14.484375 C 22.824219 13.828125 24.011719 12.90625 24 11.953125 C 23.996094 11.511719 23.691406 11.203125 23.429688 10.875 C 22.894531 10.207031 22.3125 9.59375 21.703125 9 C 19.066406 6.425781 15.003906 4.347656 11.203125 4.847656 Z M 11.203125 4.847656 "/>
<path style="stroke:none;fill-rule:nonzero;fill:#FFFFFF;fill-opacity:1;" d="M 11.484375 7.003906 C 10.605469 7.125 9.769531 7.40625 9.046875 7.933594 C 5.707031 10.382812 6.679688 16.035156 10.875 16.894531 C 11.390625 17 11.941406 17.066406 12.46875 17.003906 C 13.292969 16.902344 14.074219 16.652344 14.765625 16.1875 C 17.742188 14.191406 17.734375 9.664062 14.671875 7.746094 C 14.203125 7.449219 13.667969 7.21875 13.125 7.105469 C 12.59375 6.996094 12.023438 6.929688 11.484375 7.003906 Z M 11.484375 7.003906 "/>
<path style="stroke:none;fill-rule:nonzero;fill:#151515;fill-opacity:1;" d="M 11.484375 9.304688 C 8.679688 9.808594 8.550781 13.949219 11.296875 14.648438 C 11.675781 14.746094 12.128906 14.757812 12.515625 14.691406 C 15.289062 14.191406 15.492188 9.996094 12.703125 9.339844 C 12.332031 9.25 11.863281 9.234375 11.484375 9.304688 Z M 11.484375 9.304688 "/>
<path style="stroke:none;fill-rule:nonzero;fill:#FFFFFF;fill-opacity:0;" d="M 0 12.328125 L 0 24 L 24 24 L 24 12.328125 L 23.953125 12.328125 C 23.753906 12.78125 23.359375 13.171875 23.042969 13.546875 C 22.25 14.484375 21.363281 15.355469 20.390625 16.109375 C 15.789062 19.675781 9.78125 20.171875 4.828125 16.984375 C 2.871094 15.722656 1.507812 14.054688 0 12.328125 Z M 0 12.328125 "/>
</g>
</svg>
