<?xml version="1.0" encoding="UTF-8"?>
<svg xmlns="http://www.w3.org/2000/svg" xmlns:xlink="http://www.w3.org/1999/xlink" width="24px" height="24px" viewBox="0 0 24 24" version="1.1">
<g id="surface1">
<path style="stroke:none;fill-rule:nonzero;fill:#151515;fill-opacity:1;" d="M 2.34375 2.667969 C 1.996094 2.78125 1.695312 3.042969 1.574219 3.335938 C 1.472656 3.585938 1.480469 4.007812 1.597656 4.265625 C 1.667969 4.421875 2.066406 4.851562 3.085938 5.875 C 4.164062 6.957031 4.460938 7.28125 4.40625 7.3125 C 4.367188 7.332031 4.03125 7.5625 3.65625 7.824219 C 2.785156 8.421875 1.828125 9.191406 0.988281 9.960938 C 0.425781 10.472656 0.300781 10.613281 0.171875 10.871094 C 0.0429688 11.136719 0.0234375 11.226562 0.0234375 11.554688 C 0.0234375 12.09375 0.121094 12.3125 0.558594 12.769531 C 0.988281 13.214844 1.941406 14.042969 2.671875 14.605469 C 4.410156 15.945312 6.28125 16.984375 8.0625 17.585938 C 9.679688 18.132812 11.230469 18.351562 12.726562 18.242188 C 13.429688 18.191406 14.492188 18.027344 14.90625 17.90625 L 15.066406 17.859375 L 16.710938 19.496094 C 17.785156 20.5625 18.425781 21.167969 18.5625 21.238281 C 18.84375 21.382812 19.296875 21.390625 19.574219 21.242188 C 19.796875 21.132812 20.042969 20.863281 20.136719 20.644531 C 20.246094 20.390625 20.222656 19.976562 20.085938 19.707031 C 19.996094 19.527344 18.164062 17.671875 11.640625 11.152344 C 5.933594 5.453125 3.25 2.804688 3.125 2.746094 C 2.921875 2.652344 2.511719 2.609375 2.34375 2.667969 Z M 8.640625 11.804688 C 8.695312 12.636719 9.003906 13.316406 9.609375 13.925781 C 10.234375 14.554688 10.917969 14.878906 11.765625 14.9375 L 12.179688 14.96875 L 12.796875 15.585938 L 13.410156 16.203125 L 13.050781 16.285156 C 10.632812 16.8125 8.199219 15.4375 7.410156 13.09375 C 7.15625 12.335938 7.105469 11.28125 7.289062 10.503906 L 7.367188 10.15625 L 8.609375 11.398438 Z M 8.640625 11.804688 "/>
<path style="stroke:none;fill-rule:nonzero;fill:#151515;fill-opacity:1;" d="M 10.96875 4.90625 C 10.308594 4.96875 8.582031 5.320312 8.492188 5.414062 C 8.480469 5.429688 8.839844 5.816406 9.300781 6.277344 L 10.132812 7.109375 L 10.519531 6.980469 C 11.597656 6.617188 12.921875 6.6875 13.992188 7.171875 C 14.765625 7.519531 15.59375 8.230469 16.054688 8.949219 C 16.832031 10.148438 17.035156 11.675781 16.597656 13.035156 L 16.46875 13.445312 L 17.792969 14.769531 C 19.074219 16.050781 19.125 16.09375 19.238281 16.039062 C 19.460938 15.941406 20.457031 15.265625 21.09375 14.785156 C 21.960938 14.128906 22.566406 13.617188 23.207031 12.992188 C 23.878906 12.347656 23.972656 12.171875 23.972656 11.578125 C 23.976562 11.21875 23.960938 11.148438 23.828125 10.871094 C 23.699219 10.617188 23.574219 10.472656 23.148438 10.074219 C 20.429688 7.5625 17.617188 5.921875 14.789062 5.207031 C 13.929688 4.992188 13.285156 4.914062 12.210938 4.898438 C 11.644531 4.894531 11.085938 4.894531 10.96875 4.90625 Z M 10.96875 4.90625 "/>
<path style="stroke:none;fill-rule:nonzero;fill:#151515;fill-opacity:1;" d="M 11.398438 8.242188 C 11.304688 8.269531 11.53125 8.507812 13.304688 10.28125 L 15.3125 12.289062 L 15.347656 12.070312 C 15.542969 10.625 14.792969 9.183594 13.519531 8.554688 C 13.027344 8.3125 12.542969 8.203125 11.980469 8.207031 C 11.71875 8.210938 11.460938 8.226562 11.398438 8.242188 Z M 11.398438 8.242188 "/>
</g>
</svg>
